<?xml version="1.0" encoding="utf-8"?>
<!-- Generator: Adobe Illustrator 21.0.0, SVG Export Plug-In . SVG Version: 6.00 Build 0)  -->
<svg version="1.1" id="Layer_1" xmlns="http://www.w3.org/2000/svg" xmlns:xlink="http://www.w3.org/1999/xlink" x="0px" y="0px"
	 viewBox="0 0 1792 1792" style="enable-background:new 0 0 1792 1792;" xml:space="preserve">
<path d="M836.8,896c0-65.4-23.1-121.2-69.4-167.4S665.4,659.2,600,659.2s-121.2,23.1-167.4,69.4S363.2,830.7,363.2,896
	s23.1,121.2,69.4,167.4s102.1,69.4,167.4,69.4s121.2-23.1,167.4-69.4S836.8,961.4,836.8,896z M1547.2,1369.6
	c0-32.1-11.7-59.8-35.1-83.2c-23.4-23.4-51.2-35.1-83.2-35.1c-32.1,0-59.8,11.7-83.2,35.1c-23.4,23.4-35.2,51.2-35.2,83.2
	c0,32.7,11.6,60.6,34.7,83.7s51,34.7,83.7,34.7c32.7,0,60.6-11.6,83.7-34.7S1547.2,1402.3,1547.2,1369.6z M1547.2,422.4
	c0-32.1-11.7-59.8-35.1-83.2c-23.4-23.4-51.2-35.1-83.2-35.1c-32.1,0-59.8,11.7-83.2,35.1c-23.4,23.4-35.2,51.2-35.2,83.2
	c0,32.7,11.6,60.6,34.7,83.7c23.1,23.1,51,34.7,83.7,34.7c32.7,0,60.6-11.6,83.7-34.7C1535.6,483,1547.2,455.1,1547.2,422.4z
	 M1192,811.9V983c0,6.2-2.2,12.2-6.5,18c-4.3,5.9-9.2,9.1-14.8,9.7l-143.4,22.2c-6.8,21.6-16.6,45-29.6,70.3
	c21,29.6,48.7,65.1,83.2,106.4c4.3,6.2,6.5,12.3,6.5,18.5c0,7.4-2.2,13.3-6.5,17.6c-14.2,18.5-39.6,46.1-76.3,82.8
	c-36.7,36.7-60.9,55-72.6,55c-6.8,0-13.3-2.2-19.4-6.5l-106.4-83.2c-22.8,11.7-46.6,21.3-71.2,28.7c-6.8,66.6-13.9,114.4-21.3,143.4
	c-4.3,14.8-13.6,22.2-27.8,22.2H514c-6.8,0-12.9-2.3-18.5-6.9c-5.6-4.6-8.6-10-9.2-16.2L465,1323.4c-21-6.2-44.1-15.7-69.4-28.7
	L286.4,1377c-4.3,4.3-10.5,6.5-18.5,6.5c-6.8,0-13.3-2.5-19.4-7.4c-88.8-82-133.2-131.4-133.2-148c0-5.6,2.2-11.4,6.5-17.6
	c6.2-8.6,18.8-25,37.9-49c19.1-24,33.6-42.9,43.5-56.4c-14.2-27.1-25-52.4-32.4-75.8L30.2,1007c-6.2-0.6-11.4-3.5-15.7-8.8
	S8,987,8,980.2V809.1c0-6.2,2.2-12.2,6.5-18c4.3-5.9,9.2-9.1,14.8-9.7l143.4-22.2c6.8-21.6,16.7-45,29.6-70.3
	c-21-29.6-48.7-65.1-83.2-106.4c-4.3-6.8-6.5-13-6.5-18.5c0-7.4,2.2-13.6,6.5-18.5c13.6-18.5,38.9-45.9,75.9-82.3
	s61.4-54.6,73.1-54.6c6.8,0,13.3,2.2,19.4,6.5l106.4,83.2c21-11.1,44.7-21,71.2-29.6c6.8-66.6,13.9-114.1,21.3-142.5
	c4.3-14.8,13.6-22.2,27.7-22.2H686c6.8,0,12.9,2.3,18.5,6.9c5.5,4.6,8.6,10,9.2,16.2L735,468.7c21,6.2,44.1,15.7,69.4,28.7
	L913.6,415c4.9-4.3,11.1-6.5,18.5-6.5c6.8,0,13.3,2.5,19.4,7.4c88.8,82,133.2,131.4,133.2,148c0,5.5-2.2,11.4-6.5,17.6
	c-7.4,9.9-20.3,26.5-38.8,50c-18.5,23.4-32.4,41.9-41.6,55.5c14.2,29.6,24.7,54.9,31.4,75.9l140.6,21.3c6.2,1.2,11.4,4.5,15.7,9.7
	S1192,805.1,1192,811.9z M1784,1304.9v129.5c0,9.9-45.9,19.4-137.8,28.7c-7.4,16.7-16.7,32.7-27.8,48.1
	c31.4,69.7,47.2,112.2,47.2,127.7c0,2.5-1.2,4.6-3.7,6.5c-75.2,43.8-113.5,65.7-114.7,65.7c-4.9,0-19.1-14.5-42.5-43.5
	c-23.4-29-39.5-50-48.1-62.9c-12.3,1.2-21.6,1.8-27.8,1.8s-15.4-0.6-27.8-1.8c-8.6,12.9-24.7,33.9-48.1,62.9
	c-23.4,29-37.6,43.5-42.5,43.5c-1.2,0-39.5-21.9-114.7-65.7c-2.5-1.8-3.7-4-3.7-6.5c0-15.4,15.7-58,47.2-127.7
	c-11.1-15.4-20.4-31.4-27.8-48.1c-91.9-9.2-137.8-18.8-137.8-28.7v-129.5c0-9.9,45.9-19.4,137.8-28.7c8-17.9,17.3-33.9,27.8-48.1
	c-31.5-69.7-47.2-112.2-47.2-127.7c0-2.5,1.2-4.6,3.7-6.5c2.5-1.2,13.3-7.4,32.4-18.5c19.1-11.1,37.3-21.6,54.6-31.5
	c17.3-9.9,26.5-14.8,27.8-14.8c4.9,0,19.1,14.3,42.5,43c23.4,28.7,39.5,49.5,48.1,62.4c12.3-1.2,21.6-1.8,27.8-1.8
	s15.4,0.6,27.8,1.8c31.4-43.8,59.8-78.3,85.1-103.6l5.5-1.8c2.5,0,40.7,21.6,114.7,64.8c2.5,1.8,3.7,4,3.7,6.5
	c0,15.4-15.7,58-47.2,127.7c10.5,14.2,19.7,30.2,27.8,48.1C1738.1,1285.5,1784,1295,1784,1304.9z M1784,357.7v129.5
	c0,9.9-45.9,19.4-137.8,28.7c-7.4,16.7-16.7,32.7-27.8,48.1c31.4,69.7,47.2,112.2,47.2,127.6c0,2.5-1.2,4.6-3.7,6.5
	c-75.2,43.8-113.5,65.7-114.7,65.7c-4.9,0-19.1-14.5-42.5-43.5c-23.4-29-39.5-49.9-48.1-62.9c-12.3,1.2-21.6,1.8-27.8,1.8
	s-15.4-0.6-27.8-1.8c-8.6,13-24.7,33.9-48.1,62.9c-23.4,29-37.6,43.5-42.5,43.5c-1.2,0-39.5-21.9-114.7-65.7c-2.5-1.9-3.7-4-3.7-6.5
	c0-15.4,15.7-58,47.2-127.6c-11.1-15.4-20.4-31.5-27.8-48.1c-91.9-9.2-137.8-18.8-137.8-28.7V357.7c0-9.9,45.9-19.4,137.8-28.7
	c8-17.9,17.3-33.9,27.8-48.1c-31.5-69.7-47.2-112.2-47.2-127.7c0-2.5,1.2-4.6,3.7-6.5c2.5-1.2,13.3-7.4,32.4-18.5
	c19.1-11.1,37.3-21.6,54.6-31.5s26.5-14.8,27.8-14.8c4.9,0,19.1,14.3,42.5,43c23.4,28.7,39.5,49.5,48.1,62.4
	c12.3-1.2,21.6-1.9,27.8-1.9s15.4,0.6,27.8,1.9c31.4-43.8,59.8-78.3,85.1-103.6l5.5-1.8c2.5,0,40.7,21.6,114.7,64.8
	c2.5,1.8,3.7,4,3.7,6.5c0,15.4-15.7,58-47.2,127.7c10.5,14.2,19.7,30.2,27.8,48.1C1738.1,338.3,1784,347.8,1784,357.7z"/>
</svg>
